<?xml version="1.0" encoding="utf-8"?>
<!-- Generator: Adobe Illustrator 22.1.0, SVG Export Plug-In . SVG Version: 6.00 Build 0)  -->
<svg version="1.1" id="Layer_1" xmlns="http://www.w3.org/2000/svg" xmlns:xlink="http://www.w3.org/1999/xlink" x="0px" y="0px"
	 viewBox="0 0 435 198" style="enable-background:new 0 0 435 198;" xml:space="preserve">
<style type="text/css">
	.st0{clip-path:url(#SVGID_2_);fill:#FFFFFF;}
	.st1{fill:#FFFFFF;}
</style>
<g>
	<g>
		<g>
			<defs>
				<rect id="SVGID_1_" x="24.3" y="23" width="198.7" height="160.6"/>
			</defs>
			<clipPath id="SVGID_2_">
				<use xlink:href="#SVGID_1_"  style="overflow:visible;"/>
			</clipPath>
			<path class="st0" d="M40,95.9l136.3-48.7L69.1,111L40,95.9z M85.8,124.8C85.8,124.8,85.8,124.8,85.8,124.8
				C85.8,124.8,85.8,124.8,85.8,124.8C85.8,124.8,85.8,124.8,85.8,124.8L85.8,124.8C85.8,124.8,85.8,124.8,85.8,124.8
				C85.8,124.8,85.8,124.8,85.8,124.8C85.8,124.8,85.8,124.8,85.8,124.8L85.8,124.8C85.8,124.8,85.8,124.8,85.8,124.8
				C85.8,124.8,85.8,124.8,85.8,124.8c-0.3,0.5-0.4,1.1-0.5,1.6L82,152.6l-7.6-34.3L157,69.2l-69.9,54
				C86.6,123.6,86.1,124.1,85.8,124.8L85.8,124.8z M89.2,167.1l4.2-33.5l20.7,10.5L89.2,167.1z M162.4,158.4l-38.3-19.3
				c-0.1,0-0.1-0.1-0.2-0.1l-25.7-13l110-85L162.4,158.4z M162.4,158.4"/>
		</g>
	</g>
	<g>
		<path class="st1" d="M225.5,65.6h10.4v45h-10.4V65.6z"/>
		<path class="st1" d="M284.6,102.3v8.4h-34.9v-45h34V74h-23.7v9.8H281v8.1h-20.9v10.4H284.6z"/>
		<path class="st1" d="M296.1,65.6h20.4c14.7,0,24.8,8.9,24.8,22.5c0,13.6-10.1,22.5-24.8,22.5h-20.4V65.6z M316.1,102.1
			c8.9,0,14.8-5.3,14.8-14c0-8.6-5.9-14-14.8-14h-9.5v27.9H316.1z"/>
		<path class="st1" d="M349.6,88.1c0-13.6,10.4-23.3,24.4-23.3c7.8,0,14.3,2.8,18.5,8l-6.7,6.2c-3-3.5-6.8-5.3-11.3-5.3
			c-8.4,0-14.4,5.9-14.4,14.4c0,8.5,6,14.4,14.4,14.4c4.5,0,8.3-1.8,11.3-5.3l6.7,6.2c-4.2,5.2-10.7,8-18.6,8
			C360,111.4,349.6,101.7,349.6,88.1z"/>
	</g>
	<g>
		<path class="st1" d="M322.3,123.2h2.9v20.3h-2.9V123.2z"/>
		<path class="st1" d="M332.5,133.4c0-6,4.6-10.4,10.8-10.4c3.1,0,5.9,1.1,7.7,3.2l-1.9,1.8c-1.6-1.7-3.5-2.4-5.7-2.4
			c-4.6,0-8,3.3-8,7.8s3.4,7.8,8,7.8c2.2,0,4.2-0.8,5.7-2.4l1.9,1.8c-1.9,2.1-4.6,3.2-7.8,3.2C337.1,143.8,332.5,139.4,332.5,133.4z
			"/>
		<path class="st1" d="M372.9,141v2.5h-14.8v-20.3h14.4v2.5H361v6.2h10.2v2.5H361v6.6H372.9z"/>
		<path class="st1" d="M384.6,125.7h-7v-2.5h16.8v2.5h-7v17.8h-2.9V125.7z"/>
	</g>
</g>
</svg>
